<svg version="1.1" xmlns="http://www.w3.org/2000/svg" style="display: block;" viewBox="0 0 2048 2048" width="1024" height="1024" preserveAspectRatio="none">
<path transform="translate(0,0)" fill="rgb(60,29,17)" d="M 1023.23 285.967 C 1026.48 288.156 1039.93 301.673 1043.24 304.958 L 1085.32 347.027 L 1233.97 495.711 L 1593.31 855.409 C 1648.31 910.572 1707.33 967.363 1760.9 1023.48 C 1741.51 1045.57 1711.73 1073.63 1690.43 1095 L 1547.21 1238.27 L 1024.17 1762.26 C 992.333 1732.23 959.098 1697.38 927.922 1666.19 L 744.178 1482.27 L 286.211 1023.66 C 307.041 1004.11 328.989 980.62 349.603 960.198 L 519.791 789.869 L 855.89 453.697 C 911.594 398.047 967.041 340.928 1023.23 285.967 z"/>
<path transform="translate(0,0)" fill="rgb(237,130,40)" d="M 1023.29 342.8 C 1024.36 343.171 1025.37 343.724 1026.26 344.435 C 1028.99 346.592 1041.3 359.521 1044.24 362.488 L 1085.49 403.956 L 1227.29 545.715 L 1705.56 1024.06 C 1665.29 1063.42 1625.53 1104.2 1585.67 1144.07 L 1337.52 1392.15 L 1152.65 1577.11 C 1110.65 1619.07 1065.3 1663.4 1024.6 1706.29 C 1018.81 1702.95 991.735 1674.19 984.876 1667.32 L 870.915 1553.01 L 342.753 1024.03 L 775.245 591.338 L 929.928 436.524 C 960.619 405.71 992.317 372.911 1023.29 342.8 z"/>
<path transform="translate(0,0)" fill="rgb(60,29,17)" d="M 1023.54 378.684 C 1028.67 382.152 1061.22 415.723 1068.34 422.795 L 1202.02 556.574 L 1503.07 857.819 C 1558.12 912.856 1614.79 968.224 1669.15 1023.84 C 1597.23 1092.74 1523.88 1169.31 1453.16 1240.07 L 1024.17 1669.3 C 1020.79 1666.93 1007.2 1652.9 1003.98 1649.61 C 993.931 1639.35 983.799 1629.18 973.582 1619.09 L 842.038 1487.66 L 378.382 1024.05 C 402.723 1001.44 429.424 973.536 453.287 949.921 L 652.116 750.816 L 891.619 511.353 C 934.926 467.991 981.554 422.928 1023.54 378.684 z"/>
<path transform="translate(0,0)" fill="rgb(164,81,36)" d="M 752.034 712.845 C 773.695 711.842 797.592 712.289 819.438 712.246 C 850.332 712.021 881.228 712.089 912.121 712.448 C 931.573 728.744 958.434 755.996 976.028 774.686 C 976.121 798.444 976.659 824.39 975.99 847.976 L 975.963 938.301 C 924.91 989.388 867.849 1043.4 818.59 1095.31 C 816.943 1128.86 817.946 1168.96 817.928 1203.09 L 817.884 1382.19 C 800.334 1362.76 771.261 1335.26 751.909 1316.12 C 751.092 1260.08 751.922 1201.88 751.926 1145.73 L 751.976 847.73 L 616.828 847.678 C 661.29 802.167 707.303 758.003 752.034 712.845 z"/>
<path transform="translate(0,0)" fill="rgb(237,130,40)" d="M 752.034 712.845 C 773.695 711.842 797.592 712.289 819.438 712.246 C 850.332 712.021 881.228 712.089 912.121 712.448 C 931.573 728.744 958.434 755.996 976.028 774.686 C 976.121 798.444 976.659 824.39 975.99 847.976 L 751.985 847.881 L 752.034 712.845 z"/>
<path transform="translate(0,0)" fill="rgb(237,130,40)" d="M 840.387 1132.99 L 976.083 1132.98 L 1101.15 1132.98 C 1101.23 1196.91 1100.21 1263.51 1101.24 1327.24 L 1198.8 1327.16 L 1198.91 1391.06 L 976.261 1391.11 L 840.622 1391.1 L 840.387 1132.99 z"/>
<path transform="translate(0,0)" fill="rgb(164,81,36)" d="M 840.387 1132.99 L 976.083 1132.98 L 976.261 1391.11 L 840.622 1391.1 L 840.387 1132.99 z"/>
<path transform="translate(0,0)" fill="rgb(237,130,40)" d="M 1062.91 657.526 C 1067.95 661.485 1083.74 678.014 1088.61 683.043 C 1102.68 697.715 1116.89 712.26 1131.22 726.677 C 1131.61 733.772 1131.58 741.773 1131.71 748.949 L 1211.43 748.991 C 1241.77 777.752 1274.92 813.554 1305.23 843.731 C 1304.85 857.828 1305.18 873.338 1305.18 887.544 C 1297.08 896.192 1288.47 904.43 1279.98 912.717 C 1271.59 920.965 1262.79 930.511 1254.58 939.073 L 1120.88 938.982 L 1062.81 879.14 C 1062.61 870.219 1062.59 860.975 1062.71 852.054 C 1063.62 787.392 1061.22 722.137 1062.91 657.526 z"/>
<path transform="translate(0,0)" fill="rgb(60,29,17)" d="M 1174.74 804.547 C 1188.53 804.785 1202.78 804.617 1216.61 804.635 C 1216.5 818.607 1216.46 832.579 1216.5 846.552 C 1211.52 847.612 1181.15 847.085 1174.55 847.021 C 1174.94 833.287 1174.69 818.373 1174.74 804.547 z"/>
<path transform="translate(0,0)" fill="rgb(237,130,40)" d="M 1048.19 896.526 C 1051.06 897.54 1185.28 1032.61 1199.57 1047.1 L 1291.95 1047.07 L 1292.07 1110.62 L 1214.5 1110.76 L 1101.72 1110.72 C 1059.46 1066.85 1011.97 1019.36 968.439 976.913 C 995.264 950.357 1021.85 923.56 1048.19 896.526 z"/>
<path transform="translate(0,0)" fill="rgb(237,130,40)" d="M 1313.96 1047.07 C 1347.91 1046.63 1382.78 1047.04 1416.81 1047.04 L 1416.65 1151.68 C 1396.7 1166.44 1371.98 1182.6 1351.31 1196.85 L 1337.13 1206.69 L 1257.43 1152.33 C 1257.25 1146.02 1257.3 1139.34 1257.24 1132.99 L 1313.97 1132.98 L 1313.96 1047.07 z"/>
<path transform="translate(0,0)" fill="rgb(164,81,36)" d="M 953.46 992.234 C 958.54 995.518 978.032 1017.05 983.501 1022.54 C 1012.74 1052.3 1042.34 1081.71 1072.3 1110.76 C 1034.78 1109.95 994.467 1110.69 956.75 1110.73 C 941.114 1110.72 849.643 1112.41 840.987 1109.29 C 841.381 1103.28 843.805 1100.3 848.103 1096.02 C 868.493 1075.7 888.837 1054.32 909.725 1034.54 C 922.353 1022.59 940.021 1002.04 953.46 992.234 z"/>
<path transform="translate(0,0)" fill="rgb(237,130,40)" d="M 1123.93 1132.99 L 1198.7 1133.02 C 1199.92 1188.88 1198.83 1248.74 1198.86 1305.01 L 1123.87 1305.02 L 1123.93 1132.99 z"/>
<path transform="translate(0,0)" fill="rgb(164,81,36)" d="M 1354.51 911.867 C 1358.51 914.479 1365.92 922.4 1369.65 926.162 C 1362.61 932.542 1355.5 938.829 1348.3 945.022 L 1347.96 968.654 C 1365.76 968.676 1382.48 968.083 1400.41 968.615 C 1411 976.341 1421.51 984.176 1431.93 992.12 C 1432.17 1003.47 1432.35 1014.83 1432.44 1026.19 C 1401.66 1026.71 1369.63 1026.23 1338.75 1026.21 C 1306.15 1026.45 1273.54 1026.46 1240.94 1026.23 L 1241.01 992.439 C 1252.75 984.846 1261.91 976.365 1273.23 968.476 C 1290.36 967.977 1308.96 968.4 1326.08 968.88 L 1326.11 936.316 C 1334.69 927.911 1345.2 919.6 1354.51 911.867 z"/>
<path transform="translate(0,0)" fill="rgb(164,81,36)" d="M 1142.15 657.464 C 1144.84 659.052 1207.83 723.054 1209.79 726.562 C 1187.3 726.825 1164.9 726.226 1142.23 726.554 C 1141.83 703.831 1142.48 680.501 1142.15 657.464 z"/>
<path transform="translate(0,0)" fill="rgb(237,130,40)" d="M 1144.79 961.077 C 1161.75 960.449 1181.67 961.005 1198.85 961.059 L 1198.83 1014.63 C 1192.36 1011.19 1152.33 968.932 1144.79 961.077 z"/>
</svg>